<?xml version="1.0" encoding="utf-8"?>
<!-- Generator: Adobe Illustrator 21.1.0, SVG Export Plug-In . SVG Version: 6.00 Build 0)  -->
<svg version="1.1" id="Layer_1" xmlns="http://www.w3.org/2000/svg" xmlns:xlink="http://www.w3.org/1999/xlink" x="0px" y="0px"
	 viewBox="0 0 67 52" style="enable-background:new 0 0 67 52;" xml:space="preserve">
<style type="text/css">
	.st0{fill:#FFFFFF;}
</style>
<polyline class="st0" points="7.3,35.2 9,35.2 9,40.4 10.9,38.2 13,38.2 10.8,40.7 13.1,43.8 10.9,43.8 9.1,41 9,41 9,43.8 
	7.3,43.8 7.3,35.2 "/>
<path class="st0" d="M13.7,38.2h1.6V39h0c0.1-0.1,0.1-0.2,0.2-0.3c0.1-0.1,0.2-0.2,0.4-0.3c0.1-0.1,0.3-0.2,0.5-0.2
	c0.2-0.1,0.4-0.1,0.6-0.1c0.4,0,0.8,0.1,1,0.2c0.3,0.1,0.5,0.3,0.6,0.6c0.1,0.2,0.2,0.5,0.3,0.8c0.1,0.3,0.1,0.7,0.1,1v3.1h-1.7
	v-2.7c0-0.2,0-0.3,0-0.5c0-0.2,0-0.3-0.1-0.5c-0.1-0.1-0.1-0.3-0.3-0.4c-0.1-0.1-0.3-0.1-0.5-0.1c-0.2,0-0.4,0-0.5,0.1
	c-0.1,0.1-0.2,0.2-0.3,0.3c-0.1,0.1-0.1,0.3-0.1,0.4c0,0.2,0,0.3,0,0.5v2.8h-1.7V38.2 M21.2,41c0,0.4,0.1,0.8,0.4,1
	c0.2,0.3,0.6,0.4,1,0.4c0.4,0,0.8-0.1,1-0.4c0.2-0.3,0.4-0.6,0.4-1s-0.1-0.8-0.4-1c-0.2-0.3-0.6-0.4-1-0.4c-0.4,0-0.8,0.1-1,0.4
	C21.4,40.3,21.2,40.6,21.2,41L21.2,41z M19.5,41c0-0.4,0.1-0.8,0.2-1.2c0.2-0.4,0.4-0.7,0.7-0.9c0.3-0.3,0.6-0.4,1-0.6
	c0.4-0.1,0.8-0.2,1.2-0.2c0.4,0,0.8,0.1,1.2,0.2c0.4,0.1,0.7,0.3,1,0.6c0.3,0.3,0.5,0.6,0.7,0.9c0.2,0.4,0.2,0.8,0.2,1.2
	c0,0.4-0.1,0.8-0.2,1.2c-0.2,0.4-0.4,0.7-0.7,0.9c-0.3,0.3-0.6,0.4-1,0.6c-0.4,0.1-0.8,0.2-1.2,0.2c-0.4,0-0.8-0.1-1.2-0.2
	c-0.4-0.1-0.7-0.3-1-0.6c-0.3-0.3-0.5-0.6-0.7-0.9C19.6,41.8,19.5,41.5,19.5,41L19.5,41z"/>
<polyline class="st0" points="25.6,38.2 27.4,38.2 28.5,41.7 28.5,41.7 29.5,38.2 31.3,38.2 32.4,41.7 32.4,41.7 33.4,38.2 
	35.1,38.2 33.2,43.8 31.5,43.8 30.3,40.1 30.3,40.1 29.3,43.8 27.6,43.8 25.6,38.2 "/>
<path class="st0" d="M39.9,35.2V39h0c0-0.1,0.1-0.2,0.2-0.3c0.1-0.1,0.2-0.2,0.3-0.3c0.1-0.1,0.3-0.2,0.5-0.2
	c0.2-0.1,0.4-0.1,0.6-0.1c0.4,0,0.8,0.1,1,0.2c0.3,0.1,0.5,0.3,0.6,0.6c0.1,0.2,0.2,0.5,0.3,0.8c0.1,0.3,0.1,0.7,0.1,1v3.1h-1.7
	v-2.7c0-0.2,0-0.3,0-0.5c0-0.2,0-0.3-0.1-0.5c-0.1-0.1-0.1-0.3-0.3-0.4c-0.1-0.1-0.3-0.1-0.5-0.1s-0.4,0-0.5,0.1
	c-0.1,0.1-0.2,0.2-0.3,0.3c-0.1,0.1-0.1,0.3-0.1,0.4c0,0.2,0,0.3,0,0.5v2.8h-1.7v-8.6H39.9 M45.7,41c0,0.4,0.1,0.8,0.4,1
	c0.2,0.3,0.6,0.4,1,0.4c0.4,0,0.8-0.1,1-0.4c0.2-0.3,0.4-0.6,0.4-1s-0.1-0.8-0.4-1c-0.2-0.3-0.6-0.4-1-0.4c-0.4,0-0.8,0.1-1,0.4
	C45.8,40.3,45.7,40.6,45.7,41L45.7,41z M44,41c0-0.4,0.1-0.8,0.2-1.2c0.2-0.4,0.4-0.7,0.7-0.9c0.3-0.3,0.6-0.4,1-0.6
	c0.4-0.1,0.8-0.2,1.2-0.2c0.4,0,0.8,0.1,1.2,0.2c0.4,0.1,0.7,0.3,1,0.6c0.3,0.3,0.5,0.6,0.7,0.9c0.2,0.4,0.2,0.8,0.2,1.2
	c0,0.4-0.1,0.8-0.2,1.2c-0.2,0.4-0.4,0.7-0.7,0.9c-0.3,0.3-0.6,0.4-1,0.6c-0.4,0.1-0.8,0.2-1.2,0.2c-0.4,0-0.8-0.1-1.2-0.2
	c-0.4-0.1-0.7-0.3-1-0.6c-0.3-0.3-0.5-0.6-0.7-0.9C44.1,41.8,44,41.5,44,41L44,41z"/>
<polyline class="st0" points="50.1,38.2 51.9,38.2 53,41.7 53,41.7 54,38.2 55.8,38.2 56.9,41.7 56.9,41.7 57.9,38.2 59.6,38.2 
	57.7,43.8 56,43.8 54.8,40.1 54.8,40.1 53.8,43.8 52.1,43.8 50.1,38.2 "/>
<path class="st0" d="M50.9,19.6h-2.6v-6.4h2.6c2,0,3.5,0.9,3.5,3.3C54.3,18.8,52.9,19.6,50.9,19.6L50.9,19.6z M33.1,28.3
	c-1.5,0.1-3.2-0.9-3.3-2.6c-0.1-1.4,1.5-2.7,2.6-3.3l3.7,4C35.4,27.3,34.2,28.2,33.1,28.3L33.1,28.3z M16.6,23.6l2.8-8.7h0.1
	l2.7,8.7H16.6L16.6,23.6z M51.7,8h-9.6v17.3l-5.2-5.5L34,16.7c-0.8-0.9-1.8-1.6-1.8-2.9c0-1,0.8-1.8,1.8-1.9c1.2-0.1,2,0.6,2.1,1.8
	c0,1-0.4,1.7-1,2.2l3,3.2c1.7-1.3,2.8-3.1,2.7-5.4c-0.2-3.8-3.5-6.1-7.1-5.9c-3.5,0.2-6.7,2.7-6.5,6.4c0.1,1.8,1.1,3.2,2.3,4.5
	c-0.8,0.4-1.5,0.9-2.2,1.4L22.7,8h-6.6L6.9,32.9h6.6l1.6-4.5h9.8l0,0c1.2,3,4.4,4.7,7.8,4.5c2.7-0.1,4.8-1,6.8-2.8l2.7,2.8l0,0h6
	v-8.3h3.5c4.2,0,8.9-2.4,8.9-8.6C60.6,10.2,55.2,8,51.7,8L51.7,8z"/>
</svg>
